<?xml version="1.0" encoding="UTF-8"?>
<!DOCTYPE svg PUBLIC "-//W3C//DTD SVG 1.1//EN" "http://www.w3.org/Graphics/SVG/1.1/DTD/svg11.dtd">
<svg version="1.1" xmlns="http://www.w3.org/2000/svg" xmlns:xlink="http://www.w3.org/1999/xlink" x="0" y="0" width="1024" height="768" viewBox="0, 0, 1024, 768">
  <g id="Background">
    <rect x="0" y="0" width="1024" height="768" fill="#FFFFFF"/>
    <rect x="0" y="0" width="1024" height="768" fill="url(#Gradient_1)"/>
    <g stroke-width="1px">
      <line x1="12" y1="0" x2="12" y2="768" stroke="#FFFFFF" stroke-opacity="0.12"/>
      <line x1="24" y1="0" x2="24" y2="768" stroke="#FFFFFF" stroke-opacity="0.12"/>
      <line x1="36" y1="0" x2="36" y2="768" stroke="#FFFFFF" stroke-opacity="0.12"/>
      <line x1="48" y1="0" x2="48" y2="768" stroke="#FFFFFF" stroke-opacity="0.12"/>
      <line x1="60" y1="0" x2="60" y2="768" stroke="#FFFFFF" stroke-opacity="0.12"/>
      <line x1="72" y1="0" x2="72" y2="768" stroke="#FFFFFF" stroke-opacity="0.24"/>
      <line x1="84" y1="0" x2="84" y2="768" stroke="#FFFFFF" stroke-opacity="0.12"/>
      <line x1="96" y1="0" x2="96" y2="768" stroke="#FFFFFF" stroke-opacity="0.12"/>
      <line x1="108" y1="0" x2="108" y2="768" stroke="#FFFFFF" stroke-opacity="0.12"/>
      <line x1="120" y1="0" x2="120" y2="768" stroke="#FFFFFF" stroke-opacity="0.12"/>
      <line x1="132" y1="0" x2="132" y2="768" stroke="#FFFFFF" stroke-opacity="0.12"/>
      <line x1="144" y1="0" x2="144" y2="768" stroke="#FFFFFF" stroke-opacity="0.24"/>
      <line x1="156" y1="0" x2="156" y2="768" stroke="#FFFFFF" stroke-opacity="0.12"/>
      <line x1="168" y1="0" x2="168" y2="768" stroke="#FFFFFF" stroke-opacity="0.12"/>
      <line x1="180" y1="0" x2="180" y2="768" stroke="#FFFFFF" stroke-opacity="0.12"/>
      <line x1="192" y1="0" x2="192" y2="768" stroke="#FFFFFF" stroke-opacity="0.12"/>
      <line x1="204" y1="0" x2="204" y2="768" stroke="#FFFFFF" stroke-opacity="0.12"/>
      <line x1="216" y1="0" x2="216" y2="768" stroke="#FFFFFF" stroke-opacity="0.24"/>
      <line x1="228" y1="0" x2="228" y2="768" stroke="#FFFFFF" stroke-opacity="0.12"/>
      <line x1="240" y1="0" x2="240" y2="768" stroke="#FFFFFF" stroke-opacity="0.12"/>
      <line x1="252" y1="0" x2="252" y2="768" stroke="#FFFFFF" stroke-opacity="0.12"/>
      <line x1="264" y1="0" x2="264" y2="768" stroke="#FFFFFF" stroke-opacity="0.12"/>
      <line x1="276" y1="0" x2="276" y2="768" stroke="#FFFFFF" stroke-opacity="0.12"/>
      <line x1="288" y1="0" x2="288" y2="768" stroke="#FFFFFF" stroke-opacity="0.24"/>
      <line x1="300" y1="0" x2="300" y2="768" stroke="#FFFFFF" stroke-opacity="0.12"/>
      <line x1="312" y1="0" x2="312" y2="768" stroke="#FFFFFF" stroke-opacity="0.12"/>
      <line x1="324" y1="0" x2="324" y2="768" stroke="#FFFFFF" stroke-opacity="0.12"/>
      <line x1="336" y1="0" x2="336" y2="768" stroke="#FFFFFF" stroke-opacity="0.12"/>
      <line x1="348" y1="0" x2="348" y2="768" stroke="#FFFFFF" stroke-opacity="0.12"/>
      <line x1="360" y1="0" x2="360" y2="768" stroke="#FFFFFF" stroke-opacity="0.24"/>
      <line x1="372" y1="0" x2="372" y2="768" stroke="#FFFFFF" stroke-opacity="0.12"/>
      <line x1="384" y1="0" x2="384" y2="768" stroke="#FFFFFF" stroke-opacity="0.12"/>
      <line x1="396" y1="0" x2="396" y2="768" stroke="#FFFFFF" stroke-opacity="0.12"/>
      <line x1="408" y1="0" x2="408" y2="768" stroke="#FFFFFF" stroke-opacity="0.12"/>
      <line x1="420" y1="0" x2="420" y2="768" stroke="#FFFFFF" stroke-opacity="0.12"/>
      <line x1="432" y1="0" x2="432" y2="768" stroke="#FFFFFF" stroke-opacity="0.24"/>
      <line x1="444" y1="0" x2="444" y2="768" stroke="#FFFFFF" stroke-opacity="0.12"/>
      <line x1="456" y1="0" x2="456" y2="768" stroke="#FFFFFF" stroke-opacity="0.12"/>
      <line x1="468" y1="0" x2="468" y2="768" stroke="#FFFFFF" stroke-opacity="0.12"/>
      <line x1="480" y1="0" x2="480" y2="768" stroke="#FFFFFF" stroke-opacity="0.12"/>
      <line x1="492" y1="0" x2="492" y2="768" stroke="#FFFFFF" stroke-opacity="0.12"/>
      <line x1="504" y1="0" x2="504" y2="768" stroke="#FFFFFF" stroke-opacity="0.24"/>
      <line x1="516" y1="0" x2="516" y2="768" stroke="#FFFFFF" stroke-opacity="0.12"/>
      <line x1="528" y1="0" x2="528" y2="768" stroke="#FFFFFF" stroke-opacity="0.12"/>
      <line x1="540" y1="0" x2="540" y2="768" stroke="#FFFFFF" stroke-opacity="0.12"/>
      <line x1="552" y1="0" x2="552" y2="768" stroke="#FFFFFF" stroke-opacity="0.12"/>
      <line x1="564" y1="0" x2="564" y2="768" stroke="#FFFFFF" stroke-opacity="0.12"/>
      <line x1="576" y1="0" x2="576" y2="768" stroke="#FFFFFF" stroke-opacity="0.24"/>
      <line x1="588" y1="0" x2="588" y2="768" stroke="#FFFFFF" stroke-opacity="0.12"/>
      <line x1="600" y1="0" x2="600" y2="768" stroke="#FFFFFF" stroke-opacity="0.12"/>
      <line x1="612" y1="0" x2="612" y2="768" stroke="#FFFFFF" stroke-opacity="0.12"/>
      <line x1="624" y1="0" x2="624" y2="768" stroke="#FFFFFF" stroke-opacity="0.12"/>
      <line x1="636" y1="0" x2="636" y2="768" stroke="#FFFFFF" stroke-opacity="0.12"/>
      <line x1="648" y1="0" x2="648" y2="768" stroke="#FFFFFF" stroke-opacity="0.24"/>
      <line x1="660" y1="0" x2="660" y2="768" stroke="#FFFFFF" stroke-opacity="0.12"/>
      <line x1="672" y1="0" x2="672" y2="768" stroke="#FFFFFF" stroke-opacity="0.12"/>
      <line x1="684" y1="0" x2="684" y2="768" stroke="#FFFFFF" stroke-opacity="0.12"/>
      <line x1="696" y1="0" x2="696" y2="768" stroke="#FFFFFF" stroke-opacity="0.12"/>
      <line x1="708" y1="0" x2="708" y2="768" stroke="#FFFFFF" stroke-opacity="0.12"/>
      <line x1="720" y1="0" x2="720" y2="768" stroke="#FFFFFF" stroke-opacity="0.24"/>
      <line x1="732" y1="0" x2="732" y2="768" stroke="#FFFFFF" stroke-opacity="0.12"/>
      <line x1="744" y1="0" x2="744" y2="768" stroke="#FFFFFF" stroke-opacity="0.12"/>
      <line x1="756" y1="0" x2="756" y2="768" stroke="#FFFFFF" stroke-opacity="0.12"/>
      <line x1="768" y1="0" x2="768" y2="768" stroke="#FFFFFF" stroke-opacity="0.12"/>
      <line x1="780" y1="0" x2="780" y2="768" stroke="#FFFFFF" stroke-opacity="0.12"/>
      <line x1="792" y1="0" x2="792" y2="768" stroke="#FFFFFF" stroke-opacity="0.24"/>
      <line x1="804" y1="0" x2="804" y2="768" stroke="#FFFFFF" stroke-opacity="0.12"/>
      <line x1="816" y1="0" x2="816" y2="768" stroke="#FFFFFF" stroke-opacity="0.12"/>
      <line x1="828" y1="0" x2="828" y2="768" stroke="#FFFFFF" stroke-opacity="0.12"/>
      <line x1="840" y1="0" x2="840" y2="768" stroke="#FFFFFF" stroke-opacity="0.12"/>
      <line x1="852" y1="0" x2="852" y2="768" stroke="#FFFFFF" stroke-opacity="0.12"/>
      <line x1="864" y1="0" x2="864" y2="768" stroke="#FFFFFF" stroke-opacity="0.24"/>
      <line x1="876" y1="0" x2="876" y2="768" stroke="#FFFFFF" stroke-opacity="0.12"/>
      <line x1="888" y1="0" x2="888" y2="768" stroke="#FFFFFF" stroke-opacity="0.12"/>
      <line x1="900" y1="0" x2="900" y2="768" stroke="#FFFFFF" stroke-opacity="0.12"/>
      <line x1="912" y1="0" x2="912" y2="768" stroke="#FFFFFF" stroke-opacity="0.12"/>
      <line x1="924" y1="0" x2="924" y2="768" stroke="#FFFFFF" stroke-opacity="0.12"/>
      <line x1="936" y1="0" x2="936" y2="768" stroke="#FFFFFF" stroke-opacity="0.24"/>
      <line x1="948" y1="0" x2="948" y2="768" stroke="#FFFFFF" stroke-opacity="0.12"/>
      <line x1="960" y1="0" x2="960" y2="768" stroke="#FFFFFF" stroke-opacity="0.12"/>
      <line x1="972" y1="0" x2="972" y2="768" stroke="#FFFFFF" stroke-opacity="0.12"/>
      <line x1="984" y1="0" x2="984" y2="768" stroke="#FFFFFF" stroke-opacity="0.12"/>
      <line x1="996" y1="0" x2="996" y2="768" stroke="#FFFFFF" stroke-opacity="0.12"/>
      <line x1="1008" y1="0" x2="1008" y2="768" stroke="#FFFFFF" stroke-opacity="0.24"/>
      <line x1="1020" y1="0" x2="1020" y2="768" stroke="#FFFFFF" stroke-opacity="0.12"/>
      <line x1="0" y1="12" x2="1024" y2="12" stroke="#FFFFFF" stroke-opacity="0.12"/>
      <line x1="0" y1="24" x2="1024" y2="24" stroke="#FFFFFF" stroke-opacity="0.12"/>
      <line x1="0" y1="36" x2="1024" y2="36" stroke="#FFFFFF" stroke-opacity="0.12"/>
      <line x1="0" y1="48" x2="1024" y2="48" stroke="#FFFFFF" stroke-opacity="0.12"/>
      <line x1="0" y1="60" x2="1024" y2="60" stroke="#FFFFFF" stroke-opacity="0.12"/>
      <line x1="0" y1="72" x2="1024" y2="72" stroke="#FFFFFF" stroke-opacity="0.24"/>
      <line x1="0" y1="84" x2="1024" y2="84" stroke="#FFFFFF" stroke-opacity="0.12"/>
      <line x1="0" y1="96" x2="1024" y2="96" stroke="#FFFFFF" stroke-opacity="0.12"/>
      <line x1="0" y1="108" x2="1024" y2="108" stroke="#FFFFFF" stroke-opacity="0.12"/>
      <line x1="0" y1="120" x2="1024" y2="120" stroke="#FFFFFF" stroke-opacity="0.12"/>
      <line x1="0" y1="132" x2="1024" y2="132" stroke="#FFFFFF" stroke-opacity="0.12"/>
      <line x1="0" y1="144" x2="1024" y2="144" stroke="#FFFFFF" stroke-opacity="0.24"/>
      <line x1="0" y1="156" x2="1024" y2="156" stroke="#FFFFFF" stroke-opacity="0.12"/>
      <line x1="0" y1="168" x2="1024" y2="168" stroke="#FFFFFF" stroke-opacity="0.12"/>
      <line x1="0" y1="180" x2="1024" y2="180" stroke="#FFFFFF" stroke-opacity="0.12"/>
      <line x1="0" y1="192" x2="1024" y2="192" stroke="#FFFFFF" stroke-opacity="0.12"/>
      <line x1="0" y1="204" x2="1024" y2="204" stroke="#FFFFFF" stroke-opacity="0.12"/>
      <line x1="0" y1="216" x2="1024" y2="216" stroke="#FFFFFF" stroke-opacity="0.24"/>
      <line x1="0" y1="228" x2="1024" y2="228" stroke="#FFFFFF" stroke-opacity="0.12"/>
      <line x1="0" y1="240" x2="1024" y2="240" stroke="#FFFFFF" stroke-opacity="0.12"/>
      <line x1="0" y1="252" x2="1024" y2="252" stroke="#FFFFFF" stroke-opacity="0.12"/>
      <line x1="0" y1="264" x2="1024" y2="264" stroke="#FFFFFF" stroke-opacity="0.12"/>
      <line x1="0" y1="276" x2="1024" y2="276" stroke="#FFFFFF" stroke-opacity="0.12"/>
      <line x1="0" y1="288" x2="1024" y2="288" stroke="#FFFFFF" stroke-opacity="0.24"/>
      <line x1="0" y1="300" x2="1024" y2="300" stroke="#FFFFFF" stroke-opacity="0.12"/>
      <line x1="0" y1="312" x2="1024" y2="312" stroke="#FFFFFF" stroke-opacity="0.12"/>
      <line x1="0" y1="324" x2="1024" y2="324" stroke="#FFFFFF" stroke-opacity="0.12"/>
      <line x1="0" y1="336" x2="1024" y2="336" stroke="#FFFFFF" stroke-opacity="0.12"/>
      <line x1="0" y1="348" x2="1024" y2="348" stroke="#FFFFFF" stroke-opacity="0.12"/>
      <line x1="0" y1="360" x2="1024" y2="360" stroke="#FFFFFF" stroke-opacity="0.24"/>
      <line x1="0" y1="372" x2="1024" y2="372" stroke="#FFFFFF" stroke-opacity="0.12"/>
      <line x1="0" y1="384" x2="1024" y2="384" stroke="#FFFFFF" stroke-opacity="0.12"/>
      <line x1="0" y1="396" x2="1024" y2="396" stroke="#FFFFFF" stroke-opacity="0.12"/>
      <line x1="0" y1="408" x2="1024" y2="408" stroke="#FFFFFF" stroke-opacity="0.12"/>
      <line x1="0" y1="420" x2="1024" y2="420" stroke="#FFFFFF" stroke-opacity="0.12"/>
      <line x1="0" y1="432" x2="1024" y2="432" stroke="#FFFFFF" stroke-opacity="0.24"/>
      <line x1="0" y1="444" x2="1024" y2="444" stroke="#FFFFFF" stroke-opacity="0.12"/>
      <line x1="0" y1="456" x2="1024" y2="456" stroke="#FFFFFF" stroke-opacity="0.12"/>
      <line x1="0" y1="468" x2="1024" y2="468" stroke="#FFFFFF" stroke-opacity="0.12"/>
      <line x1="0" y1="480" x2="1024" y2="480" stroke="#FFFFFF" stroke-opacity="0.12"/>
      <line x1="0" y1="492" x2="1024" y2="492" stroke="#FFFFFF" stroke-opacity="0.12"/>
      <line x1="0" y1="504" x2="1024" y2="504" stroke="#FFFFFF" stroke-opacity="0.24"/>
      <line x1="0" y1="516" x2="1024" y2="516" stroke="#FFFFFF" stroke-opacity="0.12"/>
      <line x1="0" y1="528" x2="1024" y2="528" stroke="#FFFFFF" stroke-opacity="0.12"/>
      <line x1="0" y1="540" x2="1024" y2="540" stroke="#FFFFFF" stroke-opacity="0.12"/>
      <line x1="0" y1="552" x2="1024" y2="552" stroke="#FFFFFF" stroke-opacity="0.12"/>
      <line x1="0" y1="564" x2="1024" y2="564" stroke="#FFFFFF" stroke-opacity="0.12"/>
      <line x1="0" y1="576" x2="1024" y2="576" stroke="#FFFFFF" stroke-opacity="0.24"/>
      <line x1="0" y1="588" x2="1024" y2="588" stroke="#FFFFFF" stroke-opacity="0.12"/>
      <line x1="0" y1="600" x2="1024" y2="600" stroke="#FFFFFF" stroke-opacity="0.12"/>
      <line x1="0" y1="612" x2="1024" y2="612" stroke="#FFFFFF" stroke-opacity="0.12"/>
      <line x1="0" y1="624" x2="1024" y2="624" stroke="#FFFFFF" stroke-opacity="0.12"/>
      <line x1="0" y1="636" x2="1024" y2="636" stroke="#FFFFFF" stroke-opacity="0.12"/>
      <line x1="0" y1="648" x2="1024" y2="648" stroke="#FFFFFF" stroke-opacity="0.24"/>
      <line x1="0" y1="660" x2="1024" y2="660" stroke="#FFFFFF" stroke-opacity="0.12"/>
      <line x1="0" y1="672" x2="1024" y2="672" stroke="#FFFFFF" stroke-opacity="0.12"/>
      <line x1="0" y1="684" x2="1024" y2="684" stroke="#FFFFFF" stroke-opacity="0.12"/>
      <line x1="0" y1="696" x2="1024" y2="696" stroke="#FFFFFF" stroke-opacity="0.12"/>
      <line x1="0" y1="708" x2="1024" y2="708" stroke="#FFFFFF" stroke-opacity="0.12"/>
      <line x1="0" y1="720" x2="1024" y2="720" stroke="#FFFFFF" stroke-opacity="0.24"/>
      <line x1="0" y1="732" x2="1024" y2="732" stroke="#FFFFFF" stroke-opacity="0.12"/>
      <line x1="0" y1="744" x2="1024" y2="744" stroke="#FFFFFF" stroke-opacity="0.12"/>
      <line x1="0" y1="756" x2="1024" y2="756" stroke="#FFFFFF" stroke-opacity="0.12"/>
      <line x1="0" y1="768" x2="1024" y2="768" stroke="#FFFFFF" stroke-opacity="0.12"/>
    </g>
  </g>
  <defs>
    <linearGradient id="Gradient_1" gradientUnits="userSpaceOnUse" x1="149.961" y1="112.471" x2="874.039" y2="655.529">
      <stop offset="0" stop-color="#007CEB" stop-opacity="0.9"/>
      <stop offset="0.9" stop-color="#0054B2" stop-opacity="0.95"/>
    </linearGradient>
  </defs>
  <g id="Layer_1">
    <g id="data_box">
      <path d="M11.5,539.5 L1008.5,539.5 L1008.5,718.5 L11.5,718.5 L11.5,539.5 z" fill-opacity="0" stroke="#ADADAD" stroke-width="3"/>
      <text transform="matrix(1, 0, 0, 1, 986.777, 554.5)">
        <tspan x="-14.777" y="5" font-family="HelveticaNeue-Bold" font-size="14" fill="#FFFFFF">data</tspan>
      </text>
      <g id="FHIRbase">
        <path d="M48,577 L255.88,577 L255.88,680 L48,680 L48,577 z" fill="#FFFFFF"/>
        <text transform="matrix(1, 0, 0, 1, 115.764, 600)">
          <tspan x="-55.764" y="8.5" font-family="HelveticaNeue-Bold" font-size="24" fill="#FF0000">FHIRbase</tspan>
        </text>
        <text transform="matrix(1, 0, 0, 1, 157.94, 647.25)">
          <tspan x="-97.94" y="-18.75" font-family="HelveticaNeue-Bold" font-size="14" fill="#000000">Relational storage for FHIR </tspan>
          <tspan x="-97.94" y="-1.75" font-family="HelveticaNeue-Bold" font-size="14" fill="#000000">objects, handling versioning </tspan>
          <tspan x="-97.94" y="15.25" font-family="HelveticaNeue-Bold" font-size="14" fill="#000000">and searching tasks</tspan>
        </text>
      </g>
    </g>
    <g id="application_box">
      <path d="M11.5,289.5 L1008.5,289.5 L1008.5,468.5 L11.5,468.5 L11.5,289.5 z" fill-opacity="0" stroke="#ADADAD" stroke-width="3"/>
      <text transform="matrix(1, 0, 0, 1, 919.277, 321.5)">
        <tspan x="8.441" y="-12" font-family="HelveticaNeue-Bold" font-size="14" fill="#FFFFFF">application</tspan>
      </text>
      <g id="FHIRstation">
        <path d="M48,327 L255.88,327 L255.88,430 L48,430 L48,327 z" fill="#FFFFFF"/>
        <text transform="matrix(1, 0, 0, 1, 151.764, 364.5)">
          <tspan x="-91.764" y="-6" font-family="HelveticaNeue-Bold" font-size="24" fill="#FF0000">FHIRstation</tspan>
        </text>
        <text transform="matrix(1, 0, 0, 1, 157.94, 397.25)">
          <tspan x="-97.94" y="-18.75" font-family="HelveticaNeue-Bold" font-size="14" fill="#000000">FHIR Server implementation </tspan>
          <tspan x="-97.94" y="-1.75" font-family="HelveticaNeue-Bold" font-size="14" fill="#000000">powered by FHIRbase</tspan>
        </text>
      </g>
      <g id="eyeaux">
        <path d="M292,326.5 L499.88,326.5 L499.88,429.5 L292,429.5 L292,326.5 z" fill="#FFFFFF"/>
        <text transform="matrix(1, 0, 0, 1, 395.764, 364)">
          <tspan x="-91.764" y="-6" font-family="HelveticaNeue-Bold" font-size="24" fill="#FF0000">eyeaux</tspan>
        </text>
        <text transform="matrix(1, 0, 0, 1, 401.94, 396.75)">
          <tspan x="-97.94" y="-18.75" font-family="HelveticaNeue-Bold" font-size="14" fill="#000000">NHIC-TRA motivated data </tspan>
          <tspan x="-97.94" y="-1.75" font-family="HelveticaNeue-Bold" font-size="14" fill="#000000">ingest and export processes</tspan>
        </text>
      </g>
    </g>
    <g id="client_box">
      <path d="M11.5,37.5 L1008.5,37.5 L1008.5,216.5 L11.5,216.5 L11.5,37.5 z" fill-opacity="0" stroke="#ADADAD" stroke-width="3"/>
      <text transform="matrix(1, 0, 0, 1, 961.277, 61)">
        <tspan x="3.751" y="-3.5" font-family="HelveticaNeue-Bold" font-size="14" fill="#FFFFFF">client</tspan>
      </text>
      <g id="Pancreas">
        <path d="M46.78,71.5 L254.66,71.5 L254.66,174.5 L46.78,174.5 L46.78,71.5 z" fill="#FFFFFF"/>
        <text transform="matrix(1, 0, 0, 1, 150.544, 109)">
          <tspan x="-91.764" y="-6" font-family="HelveticaNeue-Bold" font-size="24" fill="#FF0000">TBA</tspan>
        </text>
        <text transform="matrix(1, 0, 0, 1, 156.72, 141.75)">
          <tspan x="-97.94" y="-18.75" font-family="HelveticaNeue-Bold" font-size="14" fill="#000000">Pancreas DB Client - yet to </tspan>
          <tspan x="-97.94" y="-1.75" font-family="HelveticaNeue-Bold" font-size="14" fill="#000000">be named</tspan>
        </text>
      </g>
    </g>
    <g id="RDBMS_Link">
      <path d="M51.72,483 L249.72,483 L249.72,524 L51.72,524 L51.72,483 z" fill="#ADADAD"/>
      <text transform="matrix(1, 0, 0, 1, 150.72, 503.5)">
        <tspan x="-88.72" y="7.5" font-family="HelveticaNeue-Bold" font-size="20" fill="#000000">RDBMS connector</tspan>
      </text>
      <path d="M146.5,483.5 L146.5,468.5" fill-opacity="0" stroke="#ADADAD" stroke-width="3"/>
      <path d="M146.5,539.5 L146.5,524.5" fill-opacity="0" stroke="#ADADAD" stroke-width="3"/>
    </g>
    <g id="REST_Link">
      <path d="M99.72,233 L201.72,233 L201.72,274 L99.72,274 L99.72,233 z" fill="#ADADAD"/>
      <text transform="matrix(1, 0, 0, 1, 150.72, 253.5)">
        <tspan x="-47.72" y="7.5" font-family="HelveticaNeue-Bold" font-size="20" fill="#000000">REST api</tspan>
      </text>
      <path d="M146.5,233.5 L146.5,218.5" fill-opacity="0" stroke="#ADADAD" stroke-width="3"/>
      <path d="M146.5,289.5 L146.5,274.5" fill-opacity="0" stroke="#ADADAD" stroke-width="3"/>
    </g>
  </g>
</svg>
